<?xml version="1.0" encoding="UTF-8"?>
<svg width="250px" height="94px" viewBox="0 0 250 94" version="1.1" xmlns="http://www.w3.org/2000/svg" xmlns:xlink="http://www.w3.org/1999/xlink">
    <!-- Generator: Sketch 42 (36781) - http://www.bohemiancoding.com/sketch -->
    <title>decantr</title>
    <desc>Created with Sketch.</desc>
    <defs></defs>
    <g id="Page-1" stroke="none" stroke-width="1" fill="none" fill-rule="evenodd">
        <g id="decantr">
            <text id="Pre-mixed,-accessibl" font-family="SourceSansPro-Light, Source Sans Pro" font-size="19" font-weight="300" fill="#475256">
                <tspan x="2" y="89">Pre-mixed, accessible patterns</tspan>
            </text>
            <path d="M3.40909091,39.7457627 C3.40909091,39.7457627 5.68181818,43.720339 13.6363636,43.720339 C21.5909091,43.720339 23.8636364,35.2033898 34.0909091,38.6101695 C34.0909091,42.5847458 33.5227273,53.3728814 33.5227273,53.3728814 L28.9772727,61.3220339 L21.0227273,64.7288136 L12.5,64.1610169 L6.25,59.0508475 L1.70454545,48.8305085 L1.70454545,42.0169492 L3.40909091,39.7457627 Z" id="Path-2" fill="#D7EAF0"></path>
            <path d="M0.181818182,44.1518644 C0.181818182,40.6390785 0.696964545,37.4594493 1.72727273,34.6128814 C2.75758091,31.7663135 4.16665773,29.3437388 5.95454545,27.3450847 C7.74243318,25.3464307 9.80301864,23.8171804 12.1363636,22.7572881 C14.4697086,21.6973958 15.2272727,21.1674576 19.5454545,21.1674576 C23.8636364,21.1674576 27.2727273,22.7572881 27.2727273,22.7572881 C29.2424341,23.6960499 24.379537,0.56779661 35.2272727,0 L35.2272727,65.8644068 L31.8181818,65.8644068 L30.6818182,62.4576271 L30.1136364,62.4576271 C28.4090909,63.5932203 28.6212241,63.5477898 26.2272727,64.9105085 C23.8333214,66.2732272 21.1818327,66.9545763 18.2727273,66.9545763 C12.7575482,66.9545763 8.36365273,65.0013755 5.09090909,61.0949153 C1.81816545,57.188455 0.181818182,51.5408279 0.181818182,44.1518644 Z M4.45454545,44.1518644 C4.45454545,47.0589976 4.77272409,49.6935475 5.40909091,52.0555932 C6.04545773,54.4176389 6.96969091,56.4314041 8.18181818,58.0969492 C9.39394545,59.7624942 10.8939305,61.0646281 12.6818182,62.0033898 C14.4697059,62.9421516 16.4469582,63.0254237 18.75,63.0254237 C27.9642568,63.0254237 32.3863636,59.0508475 32.3863636,24.4152542 C32.3863636,12.9760896 31.9908936,5.11016949 35.2272727,5.11016949 L35.2272727,2.27118644 C26.1363636,2.27118644 31.8181818,28.9576271 28.3181818,27.1179661 C22.9891464,24.3169322 21.9394045,24.7105085 19.8181818,24.7105085 C17.6363527,24.7105085 15.60607,25.2101645 13.7272727,26.2094915 C11.8484755,27.2088186 10.2272795,28.5715168 8.86363636,30.2976271 C7.49999318,32.0237374 6.42424636,34.0829259 5.63636364,36.4752542 C4.84848091,38.8675826 4.45454545,41.4264271 4.45454545,44.1518644 Z M41.6818182,44.1518644 C41.6818182,40.5785132 42.2121159,37.3686018 43.2727273,34.5220339 C44.3333386,31.675466 45.7575668,29.2680324 47.5454545,27.299661 C49.3333423,25.3312896 51.363625,23.8171804 53.6363636,22.7572881 C55.9091023,21.6973958 58.2575636,21.1674576 60.6818182,21.1674576 C65.8939655,21.1674576 69.9848336,22.9238242 72.9545455,26.4366102 C75.9242573,29.9493961 77.4090909,34.9156741 77.4090909,41.3355932 L77.4090909,42.9708475 C77.4090909,43.5159349 77.3484855,44.0610142 77.2272727,44.6061017 L45.7727273,44.6061017 C45.8333336,47.3315391 46.2575718,49.8601013 47.0454545,52.1918644 C47.8333373,54.5236275 48.9393868,56.5222516 50.3636364,58.1877966 C51.7878859,59.8533417 53.49999,61.1554755 55.5,62.0942373 C57.50001,63.032999 59.7424118,63.5023729 62.2272727,63.5023729 C64.5909209,63.5023729 66.7272632,63.1541278 68.6363636,62.4576271 C70.5454641,61.7611265 72.3181736,60.8072377 73.9545455,59.5959322 L75.5909091,62.6847458 C73.8333245,63.7143554 71.9091014,64.6833853 69.8181818,65.5918644 C67.7272623,66.5003435 65.0757736,66.9545763 61.8636364,66.9545763 C59.0757436,66.9545763 56.4545577,66.4397792 54,65.4101695 C51.5454423,64.3805598 49.4091,62.8815918 47.5909091,60.9132203 C45.7727182,58.9448489 44.3333386,56.5525565 43.2727273,53.7362712 C42.2121159,50.9199859 41.6818182,47.7252156 41.6818182,44.1518644 Z M73.5909091,41.5172881 C73.5909091,35.8847176 72.4394055,31.6603531 70.1363636,28.8440678 C67.8333218,26.0277825 64.7121409,24.619661 60.7727273,24.619661 C58.89393,24.619661 57.1060691,25.0133294 55.4090909,25.800678 C53.7121127,26.5880265 52.181825,27.7084673 50.8181818,29.1620339 C49.4545386,30.6156005 48.3333377,32.3871082 47.4545455,34.4766102 C46.5757532,36.5661121 46.0151527,38.9129813 45.7727273,41.5172881 L73.5909091,41.5172881 Z M81.0454545,44.1518644 C81.0454545,40.5179479 81.5909036,37.2626133 82.6818182,34.3857627 C83.7727327,31.5089122 85.2272636,29.1014786 87.0454545,27.1633898 C88.8636455,25.225301 90.969685,23.7414741 93.3636364,22.7118644 C95.7575877,21.6822547 98.2878655,21.1674576 100.954545,21.1674576 C103.984864,21.1674576 106.515141,21.7125369 108.545455,22.8027119 C110.575768,23.8928868 112.318175,25.1344563 113.772727,26.5274576 L111.409091,29.3437288 C110.015145,28.0112928 108.469705,26.9059931 106.772727,26.0277966 C105.075749,25.1496001 103.166677,24.7105085 101.045455,24.7105085 C98.8030191,24.7105085 96.7272823,25.1798823 94.8181818,26.1186441 C92.9090814,27.0574058 91.2424314,28.3898219 89.8181818,30.1159322 C88.3939323,31.8420425 87.2727314,33.8860899 86.4545455,36.2481356 C85.6363595,38.6101813 85.2272727,41.2447312 85.2272727,44.1518644 C85.2272727,46.9984323 85.6060568,49.6027001 86.3636364,51.9647458 C87.1212159,54.3267915 88.1818114,56.3556977 89.5454545,58.0515254 C90.9090977,59.7473531 92.5757477,61.0646281 94.5454545,62.0033898 C96.5151614,62.9421516 98.6818064,63.4115254 101.045455,63.4115254 C103.348496,63.4115254 105.484839,62.9270105 107.454545,61.9579661 C109.424252,60.9889217 111.166659,59.8079166 112.681818,58.4149153 L114.772727,61.140339 C112.89393,62.8361667 110.803042,64.2291471 108.5,65.319322 C106.196958,66.409497 103.651529,66.9545763 100.863636,66.9545763 C98.0151373,66.9545763 95.3939514,66.4397792 93,65.4101695 C90.6060486,64.3805598 88.5151605,62.8967329 86.7272727,60.9586441 C84.939385,59.0205553 83.5454595,56.6434039 82.5454545,53.8271186 C81.5454495,51.0108334 81.0454545,47.7857809 81.0454545,44.1518644 Z M117.590909,54.9627119 C117.590909,50.1780552 119.863614,46.513911 124.409091,43.9701695 C128.954568,41.426428 136.075709,39.609497 145.772727,38.519322 C145.833334,36.8840596 145.727274,35.2336806 145.454545,33.5681356 C145.181817,31.9025905 144.66667,30.4187636 143.909091,29.1166102 C143.151511,27.8144568 142.090916,26.7545804 140.727273,25.9369492 C139.36363,25.1193179 137.621223,24.7105085 135.5,24.7105085 C132.530288,24.7105085 129.833345,25.28587 127.409091,26.4366102 C124.984836,27.5873504 123.045462,28.7077912 121.590909,29.7979661 L119.772727,26.8 C120.56061,26.2549125 121.515146,25.6492689 122.636364,24.9830508 C123.757581,24.3168328 124.999993,23.7111892 126.363636,23.1661017 C127.72728,22.6210142 129.227265,22.1516404 130.863636,21.7579661 C132.500008,21.3642918 134.196961,21.1674576 135.954545,21.1674576 C138.560619,21.1674576 140.742415,21.6065493 142.5,22.4847458 C144.257585,23.3629422 145.681813,24.5590885 146.772727,26.0732203 C147.863642,27.5873522 148.636361,29.3588599 149.090909,31.3877966 C149.545457,33.4167333 149.772727,35.6121916 149.772727,37.9742373 L149.772727,65.8644068 L146.409091,65.8644068 L145.954545,60.2318644 L145.772727,60.2318644 C143.530292,61.9882574 141.121225,63.5477898 138.545455,64.9105085 C135.969684,66.2732272 133.227287,66.9545763 130.318182,66.9545763 C128.560597,66.9545763 126.92425,66.7123188 125.409091,66.2277966 C123.893932,65.7432744 122.54546,65.016502 121.363636,64.0474576 C120.181812,63.0784132 119.257579,61.8368437 118.590909,60.3227119 C117.924239,58.80858 117.590909,57.0219312 117.590909,54.9627119 Z M121.772727,54.7810169 C121.772727,57.9304112 122.681809,60.1712928 124.5,61.5037288 C126.318191,62.8361649 128.469685,63.5023729 130.954545,63.5023729 C133.500013,63.5023729 135.924231,62.8967292 138.227273,61.6854237 C140.530315,60.4741182 143.045441,58.7177516 145.772727,56.4162712 L145.772727,41.6081356 C141.287856,42.1532231 137.515167,42.8194311 134.454545,43.6067797 C131.393924,44.3941282 128.924252,45.3328759 127.045455,46.4230508 C125.166657,47.5132258 123.818186,48.7547953 123,50.1477966 C122.181814,51.5407979 121.772727,53.0851893 121.772727,54.7810169 Z M160.863636,22.2576271 L164.318182,22.2576271 L164.681818,28.980339 L164.954545,28.980339 C167.196981,26.7394238 169.499988,24.8770696 171.863636,23.3932203 C174.227285,21.9093711 176.924227,21.1674576 179.954545,21.1674576 C184.500023,21.1674576 187.833323,22.5301559 189.954545,25.2555932 C192.075768,27.9810306 193.136364,32.190254 193.136364,37.8833898 L193.136364,65.8644068 L189.136364,65.8644068 L189.136364,38.4284746 C189.136364,33.7649484 188.363644,30.3279207 186.818182,28.1172881 C185.27272,25.9066556 182.712139,24.8013559 179.136364,24.8013559 C176.53029,24.8013559 174.166677,25.4827051 172.045455,26.8454237 C169.924232,28.2081424 167.530316,30.2521898 164.863636,32.9776271 L164.863636,65.8644068 L160.863636,65.8644068 L160.863636,22.2576271 Z M205.681818,25.7098305 L198.863636,25.7098305 L198.863636,22.6210169 L205.772727,22.2576271 L206.318182,9.62983051 L209.772727,9.62983051 L209.772727,22.2576271 L222.409091,22.2576271 L222.409091,25.7098305 L209.772727,25.7098305 L209.772727,54.1450847 C209.772727,55.5380861 209.878787,56.7947967 210.090909,57.9152542 C210.303031,59.0357118 210.681815,60.0047417 211.227273,60.8223729 C211.77273,61.6400041 212.515147,62.2759299 213.454545,62.7301695 C214.393944,63.1844091 215.621205,63.4115254 217.136364,63.4115254 C217.984853,63.4115254 218.909086,63.2752556 219.909091,63.0027119 C220.909096,62.7301681 221.803026,62.4122052 222.590909,62.0488136 L223.681818,65.319322 C222.409085,65.8038442 221.13637,66.1975126 219.863636,66.500339 C218.590903,66.8031654 217.500005,66.9545763 216.590909,66.9545763 C214.469686,66.9545763 212.712128,66.6366133 211.318182,66.000678 C209.924235,65.3647426 208.803035,64.4714182 207.954545,63.320678 C207.106056,62.1699377 206.515153,60.7769573 206.181818,59.1416949 C205.848483,57.5064325 205.681818,55.7197837 205.681818,53.7816949 L205.681818,25.7098305 Z M228.5,22.2576271 L231.954545,22.2576271 L232.318182,30.3430508 L232.590909,30.3430508 C234.045462,27.6176135 235.818171,25.4070141 237.909091,23.7111864 C240.00001,22.0153588 242.348472,21.1674576 244.954545,21.1674576 C245.803035,21.1674576 246.560603,21.228022 247.227273,21.3491525 C247.893943,21.4702831 248.590905,21.7125406 249.318182,22.0759322 L248.409091,25.7098305 C247.681815,25.4070041 247.045457,25.2101699 246.5,25.119322 C245.954543,25.0284741 245.25758,24.9830508 244.409091,24.9830508 C242.469687,24.9830508 240.424253,25.8158109 238.272727,27.4813559 C236.121201,29.146901 234.196978,32.0388495 232.5,36.1572881 L232.5,65.8644068 L228.5,65.8644068 L228.5,22.2576271 Z" id="decantr-copy" fill="#004E75"></path>
        </g>
    </g>
</svg>